<?xml version="1.0" encoding="UTF-8"?><svg data-noselect="" viewBox="0 0 800 600" width="800" height="600" preserveAspectRatio="none" version="1.1" xmlns="http://www.w3.org/2000/svg" xmlns:xlink="http://www.w3.org/1999/xlink" class="svg-canvas"><defs><filter id="filter_shadow_shape_awPVCCiLnv" width="300%" height="300%" x="-100%" y="-100%">
              <feDropShadow dx="1.9991307591757774" dy="1.108136274848779" stdDeviation="2.514285714285696" flood-color="#000000" flood-opacity="0.6"></feDropShadow>
            </filter></defs> <g id="background" data-noselect=""><rect fill="#FFFFFF" width="800" height="600" data-noselect=""></rect> <!----></g> <g id="shape_uLJDPTwmrY" transform="translate(160,229.45854183689) rotate(0,91.402568463262,70.541458163111) scale(1,1)" filter="" style="opacity: 1;"><g><rect fill="rgba(0,0,0,0)" width="202.80513692652" height="161.08291632622" x="-10" y="-10"></rect><svg version="1.1" id="图层_1" xmlns="http://www.w3.org/2000/svg" xmlns:xlink="http://www.w3.org/1999/xlink" x="0px" y="0px" viewBox="0 0 118.3 91.3" style="enable-background:new 0 0 118.3 91.3;" xml:space="preserve" width="182.80513692652" height="141.08291632622" class="style-removed" preserveAspectRatio="none" data-parent="shape_uLJDPTwmrY">

<g>
	<polygon points="118.3,28.3 65.2,0 40.2,13.3 40.2,2.5 31.4,2.5 31.4,18 12.1,28.3 12.1,37.5 21.3,32.5 21.3,78 
		25.9,78 25.9,30.1 65.2,9.2 104.4,30.1 104.4,34.1 109,37.5 109,32.5 118.3,37.5 	" fill="rgb(255, 255, 255)" stroke-width="0"></polygon>
	<polygon points="102.9,20.1 102.9,4.9 61,21 61,34.1 65.3,32.2 65.3,23.7 98.4,10.9 98.4,17.7 	" fill="rgb(255, 102, 67)" stroke-width="0"></polygon>
	<polygon points="60.6,71.3 60.6,79.9 54.2,83.6 13.3,57.7 21.3,55.1 21.3,48.9 0,56 53.8,91.3 65.1,84.9 65.1,72.7 	
		" fill="rgb(255, 102, 67)" stroke-width="0"></polygon>
	<polygon points="91.2,74.5 93.7,79.1 0,79.1 0,74.5 	" fill="rgb(255, 255, 255)" stroke-width="0"></polygon>
	<rect x="60.6" y="73.9" width="4.5" height="6.2" fill="rgb(255, 102, 67)" stroke-width="0"></rect>
</g>
</svg></g></g><g id="shape_WYq98wCgvf" transform="translate(169.52380952380955,218.74425612260433) rotate(90,91.40256846326,70.54145816311) scale(1,1)" filter="" style="opacity: 1;"><g><rect fill="rgba(0,0,0,0)" width="202.80513692652" height="161.08291632622" x="-10" y="-10"></rect><svg version="1.1" id="68z5jLoLnO" xmlns="http://www.w3.org/2000/svg" xmlns:xlink="http://www.w3.org/1999/xlink" x="0px" y="0px" viewBox="0 0 118.3 91.3" style="enable-background:new 0 0 118.3 91.3;" xml:space="preserve" width="182.80513692652" height="141.08291632622" class="style-removed" preserveAspectRatio="none" data-parent="shape_WYq98wCgvf">

<g>
	<polygon points="118.3,28.3 65.2,0 40.2,13.3 40.2,2.5 31.4,2.5 31.4,18 12.1,28.3 12.1,37.5 21.3,32.5 21.3,78 
		25.9,78 25.9,30.1 65.2,9.2 104.4,30.1 104.4,34.1 109,37.5 109,32.5 118.3,37.5 	" fill="rgb(255, 255, 255)" stroke-width="0"></polygon>
	<polygon points="102.9,20.1 102.9,4.9 61,21 61,34.1 65.3,32.2 65.3,23.7 98.4,10.9 98.4,17.7 	" fill="rgb(253, 168, 148)" stroke-width="0"></polygon>
	<polygon points="60.6,71.3 60.6,79.9 54.2,83.6 13.3,57.7 21.3,55.1 21.3,48.9 0,56 53.8,91.3 65.1,84.9 65.1,72.7 	
		" fill="rgb(253, 168, 148)" stroke-width="0"></polygon>
	<polygon points="91.2,74.5 93.7,79.1 0,79.1 0,74.5 	" fill="rgb(255, 255, 255)" stroke-width="0"></polygon>
	<rect x="60.6" y="73.9" width="4.5" height="6.2" fill="rgb(253, 168, 148)" stroke-width="0"></rect>
</g>
</svg></g></g><g id="shape_FxHON8kM4f" transform="translate(176.86111030015002,223.74425612260427) rotate(90,91.40256846326,70.54145816311) scale(1,1)" filter="" style="opacity: 1;"><g><rect fill="rgba(0,0,0,0)" width="202.80513692652" height="161.08291632622" x="-10" y="-10"></rect><svg version="1.1" id="kXtA8KWo1y" xmlns="http://www.w3.org/2000/svg" xmlns:xlink="http://www.w3.org/1999/xlink" x="0px" y="0px" viewBox="0 0 118.3 91.3" style="enable-background:new 0 0 118.3 91.3;" xml:space="preserve" width="182.80513692652" height="141.08291632622" class="style-removed" preserveAspectRatio="none" data-parent="shape_FxHON8kM4f">

<g>
	<polygon points="118.3,28.3 65.2,0 40.2,13.3 40.2,2.5 31.4,2.5 31.4,18 12.1,28.3 12.1,37.5 21.3,32.5 21.3,78 
		25.9,78 25.9,30.1 65.2,9.2 104.4,30.1 104.4,34.1 109,37.5 109,32.5 118.3,37.5 	" fill="rgb(255, 255, 255)" stroke-width="0"></polygon>
	<polygon points="102.9,20.1 102.9,4.9 61,21 61,34.1 65.3,32.2 65.3,23.7 98.4,10.9 98.4,17.7 	" fill="rgb(255, 66, 23)" stroke-width="0"></polygon>
	<polygon points="60.6,71.3 60.6,79.9 54.2,83.6 13.3,57.7 21.3,55.1 21.3,48.9 0,56 53.8,91.3 65.1,84.9 65.1,72.7 	
		" fill="rgb(255, 66, 23)" stroke-width="0"></polygon>
	<polygon points="91.2,74.5 93.7,79.1 0,79.1 0,74.5 	" fill="rgb(255, 255, 255)" stroke-width="0"></polygon>
	<rect x="60.6" y="73.9" width="4.5" height="6.2" fill="rgb(255, 66, 23)" stroke-width="0"></rect>
</g>
</svg></g></g><g id="shape_awPVCCiLnv" transform="translate(172.45018751087898,131.75) rotate(0,269.7380952380953,168.25) scale(1,1)" filter="url(#filter_shadow_shape_awPVCCiLnv)" style="opacity: 1;"><g><svg xmlns="http://www.w3.org/2000/svg" version="1.1" xmlns:xlink="http://www.w3.org/1999/xlink" width="635.4761904761906" height="336.5" viewBox="0 0 635.4761904761906 336.5" data-parent="shape_awPVCCiLnv"><g data-width="432" transform="translate(48, 0)"><path d="M2.30 1.13L2.30-32.86Q2.30-33.94 3.38-33.94L3.38-33.94L10.50-33.94Q10.92-33.94 11.25-33.66L11.25-33.66L36.61-8.44Q37.13-7.92 37.78-8.20L37.78-8.20Q38.44-8.48 38.44-9.23L38.44-9.23L38.44-32.86Q38.44-33.94 39.52-33.94L39.52-33.94L44.58-33.94Q45.66-33.94 45.66-32.86L45.66-32.86L45.66 1.13Q45.66 2.20 44.58 2.20L44.58 2.20L37.50 2.20Q37.03 2.20 36.75 1.88L36.75 1.88L11.39-23.30Q10.88-23.81 10.22-23.53L10.22-23.53Q9.52-23.25 9.52-22.55L9.52-22.55L9.52 1.13Q9.52 2.20 8.44 2.20L8.44 2.20L3.38 2.20Q2.30 2.20 2.30 1.13L2.30 1.13Z" transform="translate(0 185.25) " fill="rgb(255, 66, 23)" stroke="rgb(255, 66, 23)" stroke-width="1.6" data-glyph-w="48" data-glyph-h="46.875" data-glyph-ascender="41.25" data-glyph-descender="-5.625"></path><path d="M44.58-33.89L7.73-33.89Q6.38-33.89 5.02-33.23L5.02-33.23Q2.30-31.88 2.30-28.50L2.30-28.50L2.30-3.19Q2.30-1.83 3-0.47L3-0.47Q4.36 2.25 7.73 2.25L7.73 2.25L44.58 2.25Q45.66 2.25 45.66 1.17L45.66 1.17L45.66 0.61Q45.66-0.47 44.58-0.47L44.58-0.47L11.34-0.47Q9.52-0.47 9.52-2.30L9.52-2.30L9.52-14.48L44.58-14.48Q45.66-14.48 45.66-15.56L45.66-15.56L45.66-16.13Q45.66-17.20 44.58-17.20L44.58-17.20L9.52-17.20L9.52-29.39Q9.52-31.17 11.34-31.17L11.34-31.17L44.58-31.17Q45.66-31.17 45.66-32.30L45.66-32.30L45.66-32.81Q45.66-33.89 44.58-33.89L44.58-33.89Z" transform="translate(48 185.25) " fill="rgb(255, 66, 23)" stroke="rgb(255, 66, 23)" stroke-width="1.6" data-glyph-w="48" data-glyph-h="46.875" data-glyph-ascender="41.25" data-glyph-descender="-5.625"></path><path d="M7.73-33.94L40.27-33.94Q42.47-33.94 44.06-32.34L44.06-32.34Q45.66-30.75 45.66-28.55L45.66-28.55L45.66-3.23Q45.66-0.98 44.06 0.61L44.06 0.61Q42.47 2.20 40.27 2.20L40.27 2.20L7.73 2.20Q5.48 2.20 3.89 0.61L3.89 0.61Q2.30-0.98 2.30-3.23L2.30-3.23L2.30-28.55Q2.30-30.75 3.89-32.34L3.89-32.34Q5.48-33.94 7.73-33.94L7.73-33.94ZM36.66-31.22L11.34-31.22Q10.59-31.22 10.08-30.70L10.08-30.70Q9.52-30.19 9.52-29.44L9.52-29.44L9.52-2.34Q9.52-1.59 10.08-1.03L10.08-1.03Q10.59-0.52 11.34-0.52L11.34-0.52L36.66-0.52Q37.41-0.52 37.92-1.03L37.92-1.03Q38.44-1.59 38.44-2.34L38.44-2.34L38.44-29.44Q38.44-30.19 37.92-30.70L37.92-30.70Q37.41-31.22 36.66-31.22L36.66-31.22Z" transform="translate(96 185.25) " fill="rgb(255, 66, 23)" stroke="rgb(255, 66, 23)" stroke-width="1.6" data-glyph-w="48" data-glyph-h="46.875" data-glyph-ascender="41.25" data-glyph-descender="-5.625"></path><path d="M2.30 1.13L2.30-32.86Q2.30-33.94 3.38-33.94L3.38-33.94L10.50-33.94Q10.92-33.94 11.25-33.66L11.25-33.66L36.61-8.44Q37.13-7.92 37.78-8.20L37.78-8.20Q38.44-8.48 38.44-9.23L38.44-9.23L38.44-32.86Q38.44-33.94 39.52-33.94L39.52-33.94L44.58-33.94Q45.66-33.94 45.66-32.86L45.66-32.86L45.66 1.13Q45.66 2.20 44.58 2.20L44.58 2.20L37.50 2.20Q37.03 2.20 36.75 1.88L36.75 1.88L11.39-23.30Q10.88-23.81 10.22-23.53L10.22-23.53Q9.52-23.25 9.52-22.55L9.52-22.55L9.52 1.13Q9.52 2.20 8.44 2.20L8.44 2.20L3.38 2.20Q2.30 2.20 2.30 1.13L2.30 1.13Z" transform="translate(144 185.25) " fill="rgb(255, 66, 23)" stroke="rgb(255, 66, 23)" stroke-width="1.6" data-glyph-w="48" data-glyph-h="46.875" data-glyph-ascender="41.25" data-glyph-descender="-5.625"></path><path d="M2.30 1.13L2.30-32.86Q2.30-33.94 3.38-33.94L3.38-33.94L10.88-33.94Q11.34-33.94 11.67-33.61L11.67-33.61L24-20.20L36.33-33.61Q36.66-33.94 37.13-33.94L37.13-33.94L44.58-33.94Q45.66-33.94 45.66-32.86L45.66-32.86L45.66 1.13Q45.66 2.20 44.58 2.20L44.58 2.20L39.52 2.20Q38.44 2.20 38.44 1.13L38.44 1.13L38.44-22.41Q38.44-23.16 37.73-23.44L37.73-23.44Q37.08-23.72 36.56-23.16L36.56-23.16L26.95-12.61Q26.63-12.28 26.16-12.28L26.16-12.28L21.84-12.28Q21.38-12.28 21.05-12.61L21.05-12.61L11.44-23.16Q10.92-23.72 10.22-23.44L10.22-23.44Q9.52-23.16 9.52-22.41L9.52-22.41L9.52 1.13Q9.52 2.20 8.44 2.20L8.44 2.20L3.38 2.20Q2.30 2.20 2.30 1.13L2.30 1.13Z" transform="translate(192 185.25) " fill="rgb(255, 66, 23)" stroke="rgb(255, 66, 23)" stroke-width="1.6" data-glyph-w="48" data-glyph-h="46.875" data-glyph-ascender="41.25" data-glyph-descender="-5.625"></path><path d="M2.30-15.80L2.30 1.17Q2.30 2.25 3.38 2.25L3.38 2.25L8.44 2.25Q9.52 2.25 9.52 1.17L9.52 1.17L9.52-8.63L38.44-8.63L38.44 1.17Q38.44 2.25 39.52 2.25L39.52 2.25L44.58 2.25Q45.66 2.25 45.66 1.17L45.66 1.17L45.66-15.80Q45.66-16.17 45.47-16.45L45.47-16.45L33.09-33.47Q32.77-33.89 32.20-33.89L32.20-33.89L15.75-33.89Q15.23-33.89 14.91-33.47L14.91-33.47L2.53-16.45Q2.30-16.17 2.30-15.80L2.30-15.80ZM38.44-11.30L9.52-11.30L9.52-13.45Q9.52-13.83 9.75-14.11L9.75-14.11L21.84-30.75Q22.17-31.17 22.73-31.17L22.73-31.17L25.27-31.17Q25.78-31.17 26.11-30.75L26.11-30.75L38.25-14.11Q38.44-13.83 38.44-13.45L38.44-13.45L38.44-11.30Z" transform="translate(240 185.25) " fill="rgb(255, 66, 23)" stroke="rgb(255, 66, 23)" stroke-width="1.6" data-glyph-w="48" data-glyph-h="46.875" data-glyph-ascender="41.25" data-glyph-descender="-5.625"></path><path d="M2.30 1.13L2.30-32.86Q2.30-33.94 3.38-33.94L3.38-33.94L10.50-33.94Q10.92-33.94 11.25-33.66L11.25-33.66L36.61-8.44Q37.13-7.92 37.78-8.20L37.78-8.20Q38.44-8.48 38.44-9.23L38.44-9.23L38.44-32.86Q38.44-33.94 39.52-33.94L39.52-33.94L44.58-33.94Q45.66-33.94 45.66-32.86L45.66-32.86L45.66 1.13Q45.66 2.20 44.58 2.20L44.58 2.20L37.50 2.20Q37.03 2.20 36.75 1.88L36.75 1.88L11.39-23.30Q10.88-23.81 10.22-23.53L10.22-23.53Q9.52-23.25 9.52-22.55L9.52-22.55L9.52 1.13Q9.52 2.20 8.44 2.20L8.44 2.20L3.38 2.20Q2.30 2.20 2.30 1.13L2.30 1.13Z" transform="translate(288 185.25) " fill="rgb(255, 66, 23)" stroke="rgb(255, 66, 23)" stroke-width="1.6" data-glyph-w="48" data-glyph-h="46.875" data-glyph-ascender="41.25" data-glyph-descender="-5.625"></path><path d="M44.58-33.89L7.73-33.89Q6.38-33.89 5.02-33.23L5.02-33.23Q2.30-31.88 2.30-28.50L2.30-28.50L2.30-3.19Q2.30 0.19 5.02 1.55L5.02 1.55Q6.38 2.25 7.73 2.25L7.73 2.25L40.27 2.25Q41.63 2.25 42.98 1.55L42.98 1.55Q45.66 0.19 45.66-3.19L45.66-3.19L45.66-16.55Q45.66-17.63 44.58-17.63L44.58-17.63L9.52-17.63L9.52-29.39Q9.52-31.17 11.34-31.17L11.34-31.17L44.58-31.17Q45.66-31.17 45.66-32.30L45.66-32.30L45.66-32.81Q45.66-33.89 44.58-33.89L44.58-33.89ZM9.52-2.30L9.52-14.95L37.36-14.95Q38.44-14.95 38.44-13.83L38.44-13.83L38.44-2.30Q38.44-0.47 36.66-0.47L36.66-0.47L11.34-0.47Q9.52-0.47 9.52-2.30L9.52-2.30Z" transform="translate(336 185.25) " fill="rgb(255, 66, 23)" stroke="rgb(255, 66, 23)" stroke-width="1.6" data-glyph-w="48" data-glyph-h="46.875" data-glyph-ascender="41.25" data-glyph-descender="-5.625"></path><path d="M7.73-33.94L40.27-33.94Q42.47-33.94 44.06-32.34L44.06-32.34Q45.66-30.75 45.66-28.55L45.66-28.55L45.66-3.23Q45.66-0.98 44.06 0.61L44.06 0.61Q42.47 2.20 40.27 2.20L40.27 2.20L7.73 2.20Q5.48 2.20 3.89 0.61L3.89 0.61Q2.30-0.98 2.30-3.23L2.30-3.23L2.30-28.55Q2.30-30.75 3.89-32.34L3.89-32.34Q5.48-33.94 7.73-33.94L7.73-33.94ZM36.66-31.22L11.34-31.22Q10.59-31.22 10.08-30.70L10.08-30.70Q9.52-30.19 9.52-29.44L9.52-29.44L9.52-2.34Q9.52-1.59 10.08-1.03L10.08-1.03Q10.59-0.52 11.34-0.52L11.34-0.52L36.66-0.52Q37.41-0.52 37.92-1.03L37.92-1.03Q38.44-1.59 38.44-2.34L38.44-2.34L38.44-29.44Q38.44-30.19 37.92-30.70L37.92-30.70Q37.41-31.22 36.66-31.22L36.66-31.22Z" transform="translate(384 185.25) " fill="rgb(255, 66, 23)" stroke="rgb(255, 66, 23)" stroke-width="1.6" data-glyph-w="48" data-glyph-h="46.875" data-glyph-ascender="41.25" data-glyph-descender="-5.625"></path></g></svg></g></g></svg>
